<?xml version="1.0" standalone="yes"?>

<svg version="1.1" viewBox="0.0 0.0 1177.711286089239 1084.4068241469815" fill="none" stroke="none" stroke-linecap="square" stroke-miterlimit="10" xmlns="http://www.w3.org/2000/svg" xmlns:xlink="http://www.w3.org/1999/xlink"><clipPath id="p.0"><path d="m0 0l1177.7113 0l0 1084.4069l-1177.7113 0l0 -1084.4069z" clip-rule="nonzero"></path></clipPath><g clip-path="url(#p.0)"><path fill="#000000" fill-opacity="0.0" d="m0 0l1177.7113 0l0 1084.4069l-1177.7113 0z" fill-rule="evenodd"></path><path fill="#cfe2f3" d="m262.71915 143.81102l43.02362 0l0 58.771652l-43.02362 0z" fill-rule="evenodd"></path><path stroke="#000000" stroke-width="1.0" stroke-linejoin="round" stroke-linecap="butt" d="m262.71915 143.81102l43.02362 0l0 58.771652l-43.02362 0z" fill-rule="evenodd"></path><path fill="#000000" d="m286.12125 180.11685l-1.671875 0l0 -10.640625q-0.59375 0.578125 -1.578125 1.15625q-0.984375 0.5625 -1.765625 0.859375l0 -1.625q1.40625 -0.65625 2.453125 -1.59375q1.046875 -0.9375 1.484375 -1.8125l1.078125 0l0 13.65625z" fill-rule="nonzero"></path><path fill="#fce5cd" d="m317.07874 143.81102l43.02362 0l0 58.771652l-43.02362 0z" fill-rule="evenodd"></path><path stroke="#000000" stroke-width="1.0" stroke-linejoin="round" stroke-linecap="butt" d="m317.07874 143.81102l43.02362 0l0 58.771652l-43.02362 0z" fill-rule="evenodd"></path><path fill="#000000" d="m342.96518 178.50748l0 1.609375l-8.984375 0q-0.015625 -0.609375 0.1875 -1.15625q0.34375 -0.921875 1.09375 -1.8125q0.765625 -0.890625 2.1875 -2.0625q2.21875 -1.8125 3.0 -2.875q0.78125 -1.0625 0.78125 -2.015625q0 -0.984375 -0.71875 -1.671875q-0.703125 -0.6875 -1.84375 -0.6875q-1.203125 0 -1.9375 0.734375q-0.71875 0.71875 -0.71875 2.0l-1.71875 -0.171875q0.171875 -1.921875 1.328125 -2.921875q1.15625 -1.015625 3.09375 -1.015625q1.953125 0 3.09375 1.09375q1.140625 1.078125 1.140625 2.6875q0 0.8125 -0.34375 1.609375q-0.328125 0.78125 -1.109375 1.65625q-0.765625 0.859375 -2.5625 2.390625q-1.5 1.265625 -1.9375 1.71875q-0.421875 0.4375 -0.703125 0.890625l6.671875 0z" fill-rule="nonzero"></path><path fill="#cfe2f3" d="m371.43832 143.81102l43.02362 0l0 58.771652l-43.02362 0z" fill-rule="evenodd"></path><path stroke="#000000" stroke-width="1.0" stroke-linejoin="round" stroke-linecap="butt" d="m371.43832 143.81102l43.02362 0l0 58.771652l-43.02362 0z" fill-rule="evenodd"></path><path fill="#000000" d="m388.55914 176.5231l1.671875 -0.21875q0.28125 1.421875 0.96875 2.046875q0.703125 0.625 1.6875 0.625q1.1875 0 2.0 -0.8125q0.8125 -0.828125 0.8125 -2.03125q0 -1.140625 -0.765625 -1.890625q-0.75 -0.75 -1.90625 -0.75q-0.46875 0 -1.171875 0.1875l0.1875 -1.46875q0.15625 0.015625 0.265625 0.015625q1.0625 0 1.90625 -0.546875q0.859375 -0.5625 0.859375 -1.71875q0 -0.921875 -0.625 -1.515625q-0.609375 -0.609375 -1.59375 -0.609375q-0.96875 0 -1.625 0.609375q-0.640625 0.609375 -0.828125 1.84375l-1.671875 -0.296875q0.296875 -1.6875 1.375 -2.609375q1.09375 -0.921875 2.71875 -0.921875q1.109375 0 2.046875 0.484375q0.9375 0.46875 1.421875 1.296875q0.5 0.828125 0.5 1.75q0 0.890625 -0.46875 1.609375q-0.46875 0.71875 -1.40625 1.15625q1.21875 0.265625 1.875 1.15625q0.671875 0.875 0.671875 2.1875q0 1.78125 -1.296875 3.015625q-1.296875 1.234375 -3.28125 1.234375q-1.796875 0 -2.984375 -1.0625q-1.171875 -1.0625 -1.34375 -2.765625z" fill-rule="nonzero"></path><path fill="#fce5cd" d="m425.7979 143.81102l43.02362 0l0 58.771652l-43.02362 0z" fill-rule="evenodd"></path><path stroke="#000000" stroke-width="1.0" stroke-linejoin="round" stroke-linecap="butt" d="m425.7979 143.81102l43.02362 0l0 58.771652l-43.02362 0z" fill-rule="evenodd"></path><path fill="#000000" d="m448.26248 180.11685l0 -3.25l-5.90625 0l0 -1.53125l6.21875 -8.8125l1.359375 0l0 8.8125l1.84375 0l0 1.53125l-1.84375 0l0 3.25l-1.671875 0zm0 -4.78125l0 -6.140625l-4.25 6.140625l4.25 0z" fill-rule="nonzero"></path><path fill="#cfe2f3" d="m480.15747 143.81102l43.02362 0l0 58.771652l-43.02362 0z" fill-rule="evenodd"></path><path stroke="#000000" stroke-width="1.0" stroke-linejoin="round" stroke-linecap="butt" d="m480.15747 143.81102l43.02362 0l0 58.771652l-43.02362 0z" fill-rule="evenodd"></path><path fill="#000000" d="m497.2627 176.55435l1.765625 -0.15625q0.1875 1.28125 0.890625 1.9375q0.71875 0.640625 1.71875 0.640625q1.203125 0 2.03125 -0.90625q0.84375 -0.90625 0.84375 -2.421875q0 -1.421875 -0.8125 -2.25q-0.796875 -0.828125 -2.09375 -0.828125q-0.796875 0 -1.453125 0.375q-0.640625 0.359375 -1.015625 0.953125l-1.578125 -0.203125l1.328125 -7.0l6.765625 0l0 1.609375l-5.4375 0l-0.734375 3.640625q1.234375 -0.84375 2.578125 -0.84375q1.78125 0 3.0 1.234375q1.234375 1.234375 1.234375 3.171875q0 1.84375 -1.078125 3.1875q-1.3125 1.65625 -3.578125 1.65625q-1.859375 0 -3.03125 -1.03125q-1.171875 -1.046875 -1.34375 -2.765625z" fill-rule="nonzero"></path><path fill="#cfe2f3" d="m262.71915 210.60892l43.02362 0l0 58.771667l-43.02362 0z" fill-rule="evenodd"></path><path stroke="#000000" stroke-width="1.0" stroke-linejoin="round" stroke-linecap="butt" d="m262.71915 210.60892l43.02362 0l0 58.771667l-43.02362 0z" fill-rule="evenodd"></path><path fill="#000000" d="m286.12125 246.91475l-1.671875 0l0 -10.640625q-0.59375 0.578125 -1.578125 1.15625q-0.984375 0.5625 -1.765625 0.859375l0 -1.625q1.40625 -0.65625 2.453125 -1.59375q1.046875 -0.9375 1.484375 -1.8125l1.078125 0l0 13.65625z" fill-rule="nonzero"></path><path fill="#fce5cd" d="m317.07874 210.60892l43.02362 0l0 58.771667l-43.02362 0z" fill-rule="evenodd"></path><path stroke="#000000" stroke-width="1.0" stroke-linejoin="round" stroke-linecap="butt" d="m317.07874 210.60892l43.02362 0l0 58.771667l-43.02362 0z" fill-rule="evenodd"></path><path fill="#000000" d="m342.96518 245.30537l0 1.609375l-8.984375 0q-0.015625 -0.609375 0.1875 -1.15625q0.34375 -0.921875 1.09375 -1.8125q0.765625 -0.890625 2.1875 -2.0625q2.21875 -1.8125 3.0 -2.875q0.78125 -1.0625 0.78125 -2.015625q0 -0.984375 -0.71875 -1.671875q-0.703125 -0.6875 -1.84375 -0.6875q-1.203125 0 -1.9375 0.734375q-0.71875 0.71875 -0.71875 2.0l-1.71875 -0.171875q0.171875 -1.921875 1.328125 -2.921875q1.15625 -1.015625 3.09375 -1.015625q1.953125 0 3.09375 1.09375q1.140625 1.078125 1.140625 2.6875q0 0.8125 -0.34375 1.609375q-0.328125 0.78125 -1.109375 1.65625q-0.765625 0.859375 -2.5625 2.390625q-1.5 1.265625 -1.9375 1.71875q-0.421875 0.4375 -0.703125 0.890625l6.671875 0z" fill-rule="nonzero"></path><path fill="#cfe2f3" d="m371.43832 210.60892l43.02362 0l0 58.771667l-43.02362 0z" fill-rule="evenodd"></path><path stroke="#000000" stroke-width="1.0" stroke-linejoin="round" stroke-linecap="butt" d="m371.43832 210.60892l43.02362 0l0 58.771667l-43.02362 0z" fill-rule="evenodd"></path><path fill="#000000" d="m388.55914 243.321l1.671875 -0.21875q0.28125 1.421875 0.96875 2.046875q0.703125 0.625 1.6875 0.625q1.1875 0 2.0 -0.8125q0.8125 -0.828125 0.8125 -2.03125q0 -1.140625 -0.765625 -1.890625q-0.75 -0.75 -1.90625 -0.75q-0.46875 0 -1.171875 0.1875l0.1875 -1.46875q0.15625 0.015625 0.265625 0.015625q1.0625 0 1.90625 -0.546875q0.859375 -0.5625 0.859375 -1.71875q0 -0.921875 -0.625 -1.515625q-0.609375 -0.609375 -1.59375 -0.609375q-0.96875 0 -1.625 0.609375q-0.640625 0.609375 -0.828125 1.84375l-1.671875 -0.296875q0.296875 -1.6875 1.375 -2.609375q1.09375 -0.921875 2.71875 -0.921875q1.109375 0 2.046875 0.484375q0.9375 0.46875 1.421875 1.296875q0.5 0.828125 0.5 1.75q0 0.890625 -0.46875 1.609375q-0.46875 0.71875 -1.40625 1.15625q1.21875 0.265625 1.875 1.15625q0.671875 0.875 0.671875 2.1875q0 1.78125 -1.296875 3.015625q-1.296875 1.234375 -3.28125 1.234375q-1.796875 0 -2.984375 -1.0625q-1.171875 -1.0625 -1.34375 -2.765625z" fill-rule="nonzero"></path><path fill="#fce5cd" d="m425.7979 210.60892l43.02362 0l0 58.771667l-43.02362 0z" fill-rule="evenodd"></path><path stroke="#000000" stroke-width="1.0" stroke-linejoin="round" stroke-linecap="butt" d="m425.7979 210.60892l43.02362 0l0 58.771667l-43.02362 0z" fill-rule="evenodd"></path><path fill="#000000" d="m448.26248 246.91475l0 -3.25l-5.90625 0l0 -1.53125l6.21875 -8.8125l1.359375 0l0 8.8125l1.84375 0l0 1.53125l-1.84375 0l0 3.25l-1.671875 0zm0 -4.78125l0 -6.140625l-4.25 6.140625l4.25 0z" fill-rule="nonzero"></path><path fill="#cfe2f3" d="m480.15747 210.60892l43.02362 0l0 58.771667l-43.02362 0z" fill-rule="evenodd"></path><path stroke="#000000" stroke-width="1.0" stroke-linejoin="round" stroke-linecap="butt" d="m480.15747 210.60892l43.02362 0l0 58.771667l-43.02362 0z" fill-rule="evenodd"></path><path fill="#000000" d="m497.2627 243.35225l1.765625 -0.15625q0.1875 1.28125 0.890625 1.9375q0.71875 0.640625 1.71875 0.640625q1.203125 0 2.03125 -0.90625q0.84375 -0.90625 0.84375 -2.421875q0 -1.421875 -0.8125 -2.25q-0.796875 -0.828125 -2.09375 -0.828125q-0.796875 0 -1.453125 0.375q-0.640625 0.359375 -1.015625 0.953125l-1.578125 -0.203125l1.328125 -7.0l6.765625 0l0 1.609375l-5.4375 0l-0.734375 3.640625q1.234375 -0.84375 2.578125 -0.84375q1.78125 0 3.0 1.234375q1.234375 1.234375 1.234375 3.171875q0 1.84375 -1.078125 3.1875q-1.3125 1.65625 -3.578125 1.65625q-1.859375 0 -3.03125 -1.03125q-1.171875 -1.046875 -1.34375 -2.765625z" fill-rule="nonzero"></path><path fill="#fce5cd" d="m262.71915 580.4147l43.02362 0l0 58.771667l-43.02362 0z" fill-rule="evenodd"></path><path stroke="#000000" stroke-width="1.0" stroke-linejoin="round" stroke-linecap="butt" d="m262.71915 580.4147l43.02362 0l0 58.771667l-43.02362 0z" fill-rule="evenodd"></path><path fill="#000000" d="m288.60562 615.11115l0 1.609375l-8.984375 0q-0.015625 -0.609375 0.1875 -1.15625q0.34375 -0.921875 1.09375 -1.8125q0.765625 -0.890625 2.1875 -2.0625q2.21875 -1.8125 3.0 -2.875q0.78125 -1.0625 0.78125 -2.015625q0 -0.984375 -0.71875 -1.671875q-0.703125 -0.6875 -1.84375 -0.6875q-1.203125 0 -1.9375 0.734375q-0.71875 0.71875 -0.71875 2.0l-1.71875 -0.171875q0.171875 -1.921875 1.328125 -2.921875q1.15625 -1.015625 3.09375 -1.015625q1.953125 0 3.09375 1.09375q1.140625 1.078125 1.140625 2.6875q0 0.8125 -0.34375 1.609375q-0.328125 0.78125 -1.109375 1.65625q-0.765625 0.859375 -2.5625 2.390625q-1.5 1.265625 -1.9375 1.71875q-0.421875 0.4375 -0.703125 0.890625l6.671875 0z" fill-rule="nonzero"></path><path fill="#fce5cd" d="m317.07874 580.4147l43.02362 0l0 58.771667l-43.02362 0z" fill-rule="evenodd"></path><path stroke="#000000" stroke-width="1.0" stroke-linejoin="round" stroke-linecap="butt" d="m317.07874 580.4147l43.02362 0l0 58.771667l-43.02362 0z" fill-rule="evenodd"></path><path fill="#000000" d="m342.96518 615.11115l0 1.609375l-8.984375 0q-0.015625 -0.609375 0.1875 -1.15625q0.34375 -0.921875 1.09375 -1.8125q0.765625 -0.890625 2.1875 -2.0625q2.21875 -1.8125 3.0 -2.875q0.78125 -1.0625 0.78125 -2.015625q0 -0.984375 -0.71875 -1.671875q-0.703125 -0.6875 -1.84375 -0.6875q-1.203125 0 -1.9375 0.734375q-0.71875 0.71875 -0.71875 2.0l-1.71875 -0.171875q0.171875 -1.921875 1.328125 -2.921875q1.15625 -1.015625 3.09375 -1.015625q1.953125 0 3.09375 1.09375q1.140625 1.078125 1.140625 2.6875q0 0.8125 -0.34375 1.609375q-0.328125 0.78125 -1.109375 1.65625q-0.765625 0.859375 -2.5625 2.390625q-1.5 1.265625 -1.9375 1.71875q-0.421875 0.4375 -0.703125 0.890625l6.671875 0z" fill-rule="nonzero"></path><path fill="#cfe2f3" d="m371.43832 580.4147l43.02362 0l0 58.771667l-43.02362 0z" fill-rule="evenodd"></path><path stroke="#000000" stroke-width="1.0" stroke-linejoin="round" stroke-linecap="butt" d="m371.43832 580.4147l43.02362 0l0 58.771667l-43.02362 0z" fill-rule="evenodd"></path><path fill="#000000" d="m388.55914 613.1268l1.671875 -0.21875q0.28125 1.421875 0.96875 2.046875q0.703125 0.625 1.6875 0.625q1.1875 0 2.0 -0.8125q0.8125 -0.828125 0.8125 -2.03125q0 -1.140625 -0.765625 -1.890625q-0.75 -0.75 -1.90625 -0.75q-0.46875 0 -1.171875 0.1875l0.1875 -1.46875q0.15625 0.015625 0.265625 0.015625q1.0625 0 1.90625 -0.546875q0.859375 -0.5625 0.859375 -1.71875q0 -0.921875 -0.625 -1.515625q-0.609375 -0.609375 -1.59375 -0.609375q-0.96875 0 -1.625 0.609375q-0.640625 0.609375 -0.828125 1.84375l-1.671875 -0.296875q0.296875 -1.6875 1.375 -2.609375q1.09375 -0.921875 2.71875 -0.921875q1.109375 0 2.046875 0.484375q0.9375 0.46875 1.421875 1.296875q0.5 0.828125 0.5 1.75q0 0.890625 -0.46875 1.609375q-0.46875 0.71875 -1.40625 1.15625q1.21875 0.265625 1.875 1.15625q0.671875 0.875 0.671875 2.1875q0 1.78125 -1.296875 3.015625q-1.296875 1.234375 -3.28125 1.234375q-1.796875 0 -2.984375 -1.0625q-1.171875 -1.0625 -1.34375 -2.765625z" fill-rule="nonzero"></path><path fill="#fce5cd" d="m425.7979 580.4147l43.02362 0l0 58.771667l-43.02362 0z" fill-rule="evenodd"></path><path stroke="#000000" stroke-width="1.0" stroke-linejoin="round" stroke-linecap="butt" d="m425.7979 580.4147l43.02362 0l0 58.771667l-43.02362 0z" fill-rule="evenodd"></path><path fill="#000000" d="m448.26248 616.7205l0 -3.25l-5.90625 0l0 -1.53125l6.21875 -8.8125l1.359375 0l0 8.8125l1.84375 0l0 1.53125l-1.84375 0l0 3.25l-1.671875 0zm0 -4.78125l0 -6.140625l-4.25 6.140625l4.25 0z" fill-rule="nonzero"></path><path fill="#cfe2f3" d="m480.15747 580.4147l43.02362 0l0 58.771667l-43.02362 0z" fill-rule="evenodd"></path><path stroke="#000000" stroke-width="1.0" stroke-linejoin="round" stroke-linecap="butt" d="m480.15747 580.4147l43.02362 0l0 58.771667l-43.02362 0z" fill-rule="evenodd"></path><path fill="#000000" d="m497.2627 613.158l1.765625 -0.15625q0.1875 1.28125 0.890625 1.9375q0.71875 0.640625 1.71875 0.640625q1.203125 0 2.03125 -0.90625q0.84375 -0.90625 0.84375 -2.421875q0 -1.421875 -0.8125 -2.25q-0.796875 -0.828125 -2.09375 -0.828125q-0.796875 0 -1.453125 0.375q-0.640625 0.359375 -1.015625 0.953125l-1.578125 -0.203125l1.328125 -7.0l6.765625 0l0 1.609375l-5.4375 0l-0.734375 3.640625q1.234375 -0.84375 2.578125 -0.84375q1.78125 0 3.0 1.234375q1.234375 1.234375 1.234375 3.171875q0 1.84375 -1.078125 3.1875q-1.3125 1.65625 -3.578125 1.65625q-1.859375 0 -3.03125 -1.03125q-1.171875 -1.046875 -1.34375 -2.765625z" fill-rule="nonzero"></path><path fill="#cfe2f3" d="m262.71915 647.2126l43.02362 0l0 58.771667l-43.02362 0z" fill-rule="evenodd"></path><path stroke="#000000" stroke-width="1.0" stroke-linejoin="round" stroke-linecap="butt" d="m262.71915 647.2126l43.02362 0l0 58.771667l-43.02362 0z" fill-rule="evenodd"></path><path fill="#000000" d="m286.12125 683.51843l-1.671875 0l0 -10.640625q-0.59375 0.578125 -1.578125 1.15625q-0.984375 0.5625 -1.765625 0.859375l0 -1.625q1.40625 -0.65625 2.453125 -1.59375q1.046875 -0.9375 1.484375 -1.8125l1.078125 0l0 13.65625z" fill-rule="nonzero"></path><path fill="#cfe2f3" d="m317.07874 647.2126l43.02362 0l0 58.771667l-43.02362 0z" fill-rule="evenodd"></path><path stroke="#000000" stroke-width="1.0" stroke-linejoin="round" stroke-linecap="butt" d="m317.07874 647.2126l43.02362 0l0 58.771667l-43.02362 0z" fill-rule="evenodd"></path><path fill="#000000" d="m340.4808 683.51843l-1.671875 0l0 -10.640625q-0.59375 0.578125 -1.578125 1.15625q-0.984375 0.5625 -1.765625 0.859375l0 -1.625q1.40625 -0.65625 2.453125 -1.59375q1.046875 -0.9375 1.484375 -1.8125l1.078125 0l0 13.65625z" fill-rule="nonzero"></path><path fill="#cfe2f3" d="m371.43832 647.2126l43.02362 0l0 58.771667l-43.02362 0z" fill-rule="evenodd"></path><path stroke="#000000" stroke-width="1.0" stroke-linejoin="round" stroke-linecap="butt" d="m371.43832 647.2126l43.02362 0l0 58.771667l-43.02362 0z" fill-rule="evenodd"></path><path fill="#000000" d="m388.55914 679.9247l1.671875 -0.21875q0.28125 1.421875 0.96875 2.046875q0.703125 0.625 1.6875 0.625q1.1875 0 2.0 -0.8125q0.8125 -0.828125 0.8125 -2.03125q0 -1.140625 -0.765625 -1.890625q-0.75 -0.75 -1.90625 -0.75q-0.46875 0 -1.171875 0.1875l0.1875 -1.46875q0.15625 0.015625 0.265625 0.015625q1.0625 0 1.90625 -0.546875q0.859375 -0.5625 0.859375 -1.71875q0 -0.921875 -0.625 -1.515625q-0.609375 -0.609375 -1.59375 -0.609375q-0.96875 0 -1.625 0.609375q-0.640625 0.609375 -0.828125 1.84375l-1.671875 -0.296875q0.296875 -1.6875 1.375 -2.609375q1.09375 -0.921875 2.71875 -0.921875q1.109375 0 2.046875 0.484375q0.9375 0.46875 1.421875 1.296875q0.5 0.828125 0.5 1.75q0 0.890625 -0.46875 1.609375q-0.46875 0.71875 -1.40625 1.15625q1.21875 0.265625 1.875 1.15625q0.671875 0.875 0.671875 2.1875q0 1.78125 -1.296875 3.015625q-1.296875 1.234375 -3.28125 1.234375q-1.796875 0 -2.984375 -1.0625q-1.171875 -1.0625 -1.34375 -2.765625z" fill-rule="nonzero"></path><path fill="#fce5cd" d="m425.7979 647.2126l43.02362 0l0 58.771667l-43.02362 0z" fill-rule="evenodd"></path><path stroke="#000000" stroke-width="1.0" stroke-linejoin="round" stroke-linecap="butt" d="m425.7979 647.2126l43.02362 0l0 58.771667l-43.02362 0z" fill-rule="evenodd"></path><path fill="#000000" d="m448.26248 683.51843l0 -3.25l-5.90625 0l0 -1.53125l6.21875 -8.8125l1.359375 0l0 8.8125l1.84375 0l0 1.53125l-1.84375 0l0 3.25l-1.671875 0zm0 -4.78125l0 -6.140625l-4.25 6.140625l4.25 0z" fill-rule="nonzero"></path><path fill="#cfe2f3" d="m480.15747 647.2126l43.02362 0l0 58.771667l-43.02362 0z" fill-rule="evenodd"></path><path stroke="#000000" stroke-width="1.0" stroke-linejoin="round" stroke-linecap="butt" d="m480.15747 647.2126l43.02362 0l0 58.771667l-43.02362 0z" fill-rule="evenodd"></path><path fill="#000000" d="m497.2627 679.95593l1.765625 -0.15625q0.1875 1.28125 0.890625 1.9375q0.71875 0.640625 1.71875 0.640625q1.203125 0 2.03125 -0.90625q0.84375 -0.90625 0.84375 -2.421875q0 -1.421875 -0.8125 -2.25q-0.796875 -0.828125 -2.09375 -0.828125q-0.796875 0 -1.453125 0.375q-0.640625 0.359375 -1.015625 0.953125l-1.578125 -0.203125l1.328125 -7.0l6.765625 0l0 1.609375l-5.4375 0l-0.734375 3.640625q1.234375 -0.84375 2.578125 -0.84375q1.78125 0 3.0 1.234375q1.234375 1.234375 1.234375 3.171875q0 1.84375 -1.078125 3.1875q-1.3125 1.65625 -3.578125 1.65625q-1.859375 0 -3.03125 -1.03125q-1.171875 -1.046875 -1.34375 -2.765625z" fill-rule="nonzero"></path><path fill="#efefef" d="m368.06824 540.1076l12.4409485 0l0 -33.88977l24.881897 0l0 33.88977l12.4409485 0l-24.881897 24.881897z" fill-rule="evenodd"></path><path stroke="#000000" stroke-width="1.0" stroke-linejoin="round" stroke-linecap="butt" d="m368.06824 540.1076l12.4409485 0l0 -33.88977l24.881897 0l0 33.88977l12.4409485 0l-24.881897 24.881897z" fill-rule="evenodd"></path><path fill="#fce5cd" d="m262.71915 801.8268l43.02362 0l0 58.771667l-43.02362 0z" fill-rule="evenodd"></path><path stroke="#000000" stroke-width="1.0" stroke-linejoin="round" stroke-linecap="butt" d="m262.71915 801.8268l43.02362 0l0 58.771667l-43.02362 0z" fill-rule="evenodd"></path><path fill="#000000" d="m279.70752 838.13257l3.59375 -5.125l-3.328125 -4.734375l2.09375 0l1.515625 2.3125q0.421875 0.65625 0.671875 1.109375q0.421875 -0.609375 0.765625 -1.09375l1.65625 -2.328125l1.984375 0l-3.390625 4.640625l3.65625 5.21875l-2.046875 0l-2.03125 -3.0625l-0.53125 -0.828125l-2.59375 3.890625l-2.015625 0z" fill-rule="nonzero"></path><path fill="#fce5cd" d="m317.07874 801.8268l43.02362 0l0 58.771667l-43.02362 0z" fill-rule="evenodd"></path><path stroke="#000000" stroke-width="1.0" stroke-linejoin="round" stroke-linecap="butt" d="m317.07874 801.8268l43.02362 0l0 58.771667l-43.02362 0z" fill-rule="evenodd"></path><path fill="#000000" d="m334.0671 838.13257l3.59375 -5.125l-3.328125 -4.734375l2.09375 0l1.515625 2.3125q0.421875 0.65625 0.671875 1.109375q0.421875 -0.609375 0.765625 -1.09375l1.65625 -2.328125l1.984375 0l-3.390625 4.640625l3.65625 5.21875l-2.046875 0l-2.03125 -3.0625l-0.53125 -0.828125l-2.59375 3.890625l-2.015625 0z" fill-rule="nonzero"></path><path fill="#cfe2f3" d="m371.43832 801.8268l43.02362 0l0 58.771667l-43.02362 0z" fill-rule="evenodd"></path><path stroke="#000000" stroke-width="1.0" stroke-linejoin="round" stroke-linecap="butt" d="m371.43832 801.8268l43.02362 0l0 58.771667l-43.02362 0z" fill-rule="evenodd"></path><path fill="#000000" d="m388.38727 833.2107q0 -2.734375 1.53125 -4.0625q1.265625 -1.09375 3.09375 -1.09375q2.03125 0 3.3125 1.34375q1.296875 1.328125 1.296875 3.671875q0 1.90625 -0.578125 3.0q-0.5625 1.078125 -1.65625 1.6875q-1.078125 0.59375 -2.375 0.59375q-2.0625 0 -3.34375 -1.328125q-1.28125 -1.328125 -1.28125 -3.8125zm1.71875 0q0 1.890625 0.828125 2.828125q0.828125 0.9375 2.078125 0.9375q1.25 0 2.0625 -0.9375q0.828125 -0.953125 0.828125 -2.890625q0 -1.828125 -0.828125 -2.765625q-0.828125 -0.9375 -2.0625 -0.9375q-1.25 0 -2.078125 0.9375q-0.828125 0.9375 -0.828125 2.828125z" fill-rule="nonzero"></path><path fill="#fce5cd" d="m425.7979 801.8268l43.02362 0l0 58.771667l-43.02362 0z" fill-rule="evenodd"></path><path stroke="#000000" stroke-width="1.0" stroke-linejoin="round" stroke-linecap="butt" d="m425.7979 801.8268l43.02362 0l0 58.771667l-43.02362 0z" fill-rule="evenodd"></path><path fill="#000000" d="m442.7863 838.13257l3.59375 -5.125l-3.328125 -4.734375l2.09375 0l1.515625 2.3125q0.421875 0.65625 0.671875 1.109375q0.421875 -0.609375 0.765625 -1.09375l1.65625 -2.328125l1.984375 0l-3.390625 4.640625l3.65625 5.21875l-2.046875 0l-2.03125 -3.0625l-0.53125 -0.828125l-2.59375 3.890625l-2.015625 0z" fill-rule="nonzero"></path><path fill="#cfe2f3" d="m480.15747 801.8268l43.02362 0l0 58.771667l-43.02362 0z" fill-rule="evenodd"></path><path stroke="#000000" stroke-width="1.0" stroke-linejoin="round" stroke-linecap="butt" d="m480.15747 801.8268l43.02362 0l0 58.771667l-43.02362 0z" fill-rule="evenodd"></path><path fill="#000000" d="m497.10645 833.2107q0 -2.734375 1.53125 -4.0625q1.265625 -1.09375 3.09375 -1.09375q2.03125 0 3.3125 1.34375q1.296875 1.328125 1.296875 3.671875q0 1.90625 -0.578125 3.0q-0.5625 1.078125 -1.65625 1.6875q-1.078125 0.59375 -2.375 0.59375q-2.0625 0 -3.34375 -1.328125q-1.28125 -1.328125 -1.28125 -3.8125zm1.71875 0q0 1.890625 0.828125 2.828125q0.828125 0.9375 2.078125 0.9375q1.25 0 2.0625 -0.9375q0.828125 -0.953125 0.828125 -2.890625q0 -1.828125 -0.828125 -2.765625q-0.828125 -0.9375 -2.0625 -0.9375q-1.25 0 -2.078125 0.9375q-0.828125 0.9375 -0.828125 2.828125z" fill-rule="nonzero"></path><path fill="#cfe2f3" d="m262.71915 868.6247l43.02362 0l0 58.771606l-43.02362 0z" fill-rule="evenodd"></path><path stroke="#000000" stroke-width="1.0" stroke-linejoin="round" stroke-linecap="butt" d="m262.71915 868.6247l43.02362 0l0 58.771606l-43.02362 0z" fill-rule="evenodd"></path><path fill="#000000" d="m279.66812 900.0086q0 -2.734375 1.53125 -4.0625q1.265625 -1.09375 3.09375 -1.09375q2.03125 0 3.3125 1.34375q1.296875 1.328125 1.296875 3.671875q0 1.90625 -0.578125 3.0q-0.5625 1.078125 -1.65625 1.6875q-1.078125 0.59375 -2.375 0.59375q-2.0625 0 -3.34375 -1.328125q-1.28125 -1.328125 -1.28125 -3.8125zm1.71875 0q0 1.890625 0.828125 2.828125q0.828125 0.9375 2.078125 0.9375q1.25 0 2.0625 -0.9375q0.828125 -0.953125 0.828125 -2.890625q0 -1.828125 -0.828125 -2.765625q-0.828125 -0.9375 -2.0625 -0.9375q-1.25 0 -2.078125 0.9375q-0.828125 0.9375 -0.828125 2.828125z" fill-rule="nonzero"></path><path fill="#cfe2f3" d="m317.07874 868.6247l43.02362 0l0 58.771606l-43.02362 0z" fill-rule="evenodd"></path><path stroke="#000000" stroke-width="1.0" stroke-linejoin="round" stroke-linecap="butt" d="m317.07874 868.6247l43.02362 0l0 58.771606l-43.02362 0z" fill-rule="evenodd"></path><path fill="#000000" d="m334.02768 900.0086q0 -2.734375 1.53125 -4.0625q1.265625 -1.09375 3.09375 -1.09375q2.03125 0 3.3125 1.34375q1.296875 1.328125 1.296875 3.671875q0 1.90625 -0.578125 3.0q-0.5625 1.078125 -1.65625 1.6875q-1.078125 0.59375 -2.375 0.59375q-2.0625 0 -3.34375 -1.328125q-1.28125 -1.328125 -1.28125 -3.8125zm1.71875 0q0 1.890625 0.828125 2.828125q0.828125 0.9375 2.078125 0.9375q1.25 0 2.0625 -0.9375q0.828125 -0.953125 0.828125 -2.890625q0 -1.828125 -0.828125 -2.765625q-0.828125 -0.9375 -2.0625 -0.9375q-1.25 0 -2.078125 0.9375q-0.828125 0.9375 -0.828125 2.828125z" fill-rule="nonzero"></path><path fill="#cfe2f3" d="m371.43832 868.6247l43.02362 0l0 58.771606l-43.02362 0z" fill-rule="evenodd"></path><path stroke="#000000" stroke-width="1.0" stroke-linejoin="round" stroke-linecap="butt" d="m371.43832 868.6247l43.02362 0l0 58.771606l-43.02362 0z" fill-rule="evenodd"></path><path fill="#000000" d="m388.38727 900.0086q0 -2.734375 1.53125 -4.0625q1.265625 -1.09375 3.09375 -1.09375q2.03125 0 3.3125 1.34375q1.296875 1.328125 1.296875 3.671875q0 1.90625 -0.578125 3.0q-0.5625 1.078125 -1.65625 1.6875q-1.078125 0.59375 -2.375 0.59375q-2.0625 0 -3.34375 -1.328125q-1.28125 -1.328125 -1.28125 -3.8125zm1.71875 0q0 1.890625 0.828125 2.828125q0.828125 0.9375 2.078125 0.9375q1.25 0 2.0625 -0.9375q0.828125 -0.953125 0.828125 -2.890625q0 -1.828125 -0.828125 -2.765625q-0.828125 -0.9375 -2.0625 -0.9375q-1.25 0 -2.078125 0.9375q-0.828125 0.9375 -0.828125 2.828125z" fill-rule="nonzero"></path><path fill="#fce5cd" d="m425.7979 868.6247l43.02362 0l0 58.771606l-43.02362 0z" fill-rule="evenodd"></path><path stroke="#000000" stroke-width="1.0" stroke-linejoin="round" stroke-linecap="butt" d="m425.7979 868.6247l43.02362 0l0 58.771606l-43.02362 0z" fill-rule="evenodd"></path><path fill="#000000" d="m442.7863 904.9305l3.59375 -5.125l-3.328125 -4.734375l2.09375 0l1.515625 2.3125q0.421875 0.65625 0.671875 1.109375q0.421875 -0.609375 0.765625 -1.09375l1.65625 -2.328125l1.984375 0l-3.390625 4.640625l3.65625 5.21875l-2.046875 0l-2.03125 -3.0625l-0.53125 -0.828125l-2.59375 3.890625l-2.015625 0z" fill-rule="nonzero"></path><path fill="#cfe2f3" d="m480.15747 868.6247l43.02362 0l0 58.771606l-43.02362 0z" fill-rule="evenodd"></path><path stroke="#000000" stroke-width="1.0" stroke-linejoin="round" stroke-linecap="butt" d="m480.15747 868.6247l43.02362 0l0 58.771606l-43.02362 0z" fill-rule="evenodd"></path><path fill="#000000" d="m497.10645 900.0086q0 -2.734375 1.53125 -4.0625q1.265625 -1.09375 3.09375 -1.09375q2.03125 0 3.3125 1.34375q1.296875 1.328125 1.296875 3.671875q0 1.90625 -0.578125 3.0q-0.5625 1.078125 -1.65625 1.6875q-1.078125 0.59375 -2.375 0.59375q-2.0625 0 -3.34375 -1.328125q-1.28125 -1.328125 -1.28125 -3.8125zm1.71875 0q0 1.890625 0.828125 2.828125q0.828125 0.9375 2.078125 0.9375q1.25 0 2.0625 -0.9375q0.828125 -0.953125 0.828125 -2.890625q0 -1.828125 -0.828125 -2.765625q-0.828125 -0.9375 -2.0625 -0.9375q-1.25 0 -2.078125 0.9375q-0.828125 0.9375 -0.828125 2.828125z" fill-rule="nonzero"></path><path fill="#efefef" d="m368.06824 761.5197l12.4409485 0l0 -33.88977l24.881897 0l0 33.88977l12.4409485 0l-24.881897 24.881836z" fill-rule="evenodd"></path><path stroke="#000000" stroke-width="1.0" stroke-linejoin="round" stroke-linecap="butt" d="m368.06824 761.5197l12.4409485 0l0 -33.88977l24.881897 0l0 33.88977l12.4409485 0l-24.881897 24.881836z" fill-rule="evenodd"></path><path fill="#fce5cd" d="m262.71915 364.95145l43.02362 0l0 58.771637l-43.02362 0z" fill-rule="evenodd"></path><path stroke="#000000" stroke-width="1.0" stroke-linejoin="round" stroke-linecap="butt" d="m262.71915 364.95145l43.02362 0l0 58.771637l-43.02362 0z" fill-rule="evenodd"></path><path fill="#000000" d="m288.60562 399.6479l0 1.609375l-8.984375 0q-0.015625 -0.609375 0.1875 -1.15625q0.34375 -0.921875 1.09375 -1.8125q0.765625 -0.890625 2.1875 -2.0625q2.21875 -1.8125 3.0 -2.875q0.78125 -1.0625 0.78125 -2.015625q0 -0.984375 -0.71875 -1.671875q-0.703125 -0.6875 -1.84375 -0.6875q-1.203125 0 -1.9375 0.734375q-0.71875 0.71875 -0.71875 2.0l-1.71875 -0.171875q0.171875 -1.921875 1.328125 -2.921875q1.15625 -1.015625 3.09375 -1.015625q1.953125 0 3.09375 1.09375q1.140625 1.078125 1.140625 2.6875q0 0.8125 -0.34375 1.609375q-0.328125 0.78125 -1.109375 1.65625q-0.765625 0.859375 -2.5625 2.390625q-1.5 1.265625 -1.9375 1.71875q-0.421875 0.4375 -0.703125 0.890625l6.671875 0z" fill-rule="nonzero"></path><path fill="#fce5cd" d="m317.07874 364.95145l43.02362 0l0 58.771637l-43.02362 0z" fill-rule="evenodd"></path><path stroke="#000000" stroke-width="1.0" stroke-linejoin="round" stroke-linecap="butt" d="m317.07874 364.95145l43.02362 0l0 58.771637l-43.02362 0z" fill-rule="evenodd"></path><path fill="#000000" d="m339.5433 401.25726l0 -3.25l-5.90625 0l0 -1.53125l6.21875 -8.8125l1.359375 0l0 8.8125l1.84375 0l0 1.53125l-1.84375 0l0 3.25l-1.671875 0zm0 -4.78125l0 -6.140625l-4.25 6.140625l4.25 0z" fill-rule="nonzero"></path><path fill="#cfe2f3" d="m371.43832 364.95145l43.02362 0l0 58.771637l-43.02362 0z" fill-rule="evenodd"></path><path stroke="#000000" stroke-width="1.0" stroke-linejoin="round" stroke-linecap="butt" d="m371.43832 364.95145l43.02362 0l0 58.771637l-43.02362 0z" fill-rule="evenodd"></path><path fill="#000000" d="m388.54352 397.69476l1.765625 -0.15625q0.1875 1.28125 0.890625 1.9375q0.71875 0.640625 1.71875 0.640625q1.203125 0 2.03125 -0.90625q0.84375 -0.90625 0.84375 -2.421875q0 -1.421875 -0.8125 -2.25q-0.796875 -0.828125 -2.09375 -0.828125q-0.796875 0 -1.453125 0.375q-0.640625 0.359375 -1.015625 0.953125l-1.578125 -0.203125l1.328125 -7.0l6.765625 0l0 1.609375l-5.4375 0l-0.734375 3.640625q1.234375 -0.84375 2.578125 -0.84375q1.78125 0 3.0 1.234375q1.234375 1.234375 1.234375 3.171875q0 1.84375 -1.078125 3.1875q-1.3125 1.65625 -3.578125 1.65625q-1.859375 0 -3.03125 -1.03125q-1.171875 -1.046875 -1.34375 -2.765625z" fill-rule="nonzero"></path><path fill="#cfe2f3" d="m425.7979 364.95145l43.02362 0l0 58.771637l-43.02362 0z" fill-rule="evenodd"></path><path stroke="#000000" stroke-width="1.0" stroke-linejoin="round" stroke-linecap="butt" d="m425.7979 364.95145l43.02362 0l0 58.771637l-43.02362 0z" fill-rule="evenodd"></path><path fill="#000000" d="m442.91873 397.6635l1.671875 -0.21875q0.28125 1.421875 0.96875 2.046875q0.703125 0.625 1.6875 0.625q1.1875 0 2.0 -0.8125q0.8125 -0.828125 0.8125 -2.03125q0 -1.140625 -0.765625 -1.890625q-0.75 -0.75 -1.90625 -0.75q-0.46875 0 -1.171875 0.1875l0.1875 -1.46875q0.15625 0.015625 0.265625 0.015625q1.0625 0 1.90625 -0.546875q0.859375 -0.5625 0.859375 -1.71875q0 -0.921875 -0.625 -1.515625q-0.609375 -0.609375 -1.59375 -0.609375q-0.96875 0 -1.625 0.609375q-0.640625 0.609375 -0.828125 1.84375l-1.671875 -0.296875q0.296875 -1.6875 1.375 -2.609375q1.09375 -0.921875 2.71875 -0.921875q1.109375 0 2.046875 0.484375q0.9375 0.46875 1.421875 1.296875q0.5 0.828125 0.5 1.75q0 0.890625 -0.46875 1.609375q-0.46875 0.71875 -1.40625 1.15625q1.21875 0.265625 1.875 1.15625q0.671875 0.875 0.671875 2.1875q0 1.78125 -1.296875 3.015625q-1.296875 1.234375 -3.28125 1.234375q-1.796875 0 -2.984375 -1.0625q-1.171875 -1.0625 -1.34375 -2.765625z" fill-rule="nonzero"></path><path fill="#fce5cd" d="m480.15747 364.95145l43.02362 0l0 58.771637l-43.02362 0z" fill-rule="evenodd"></path><path stroke="#000000" stroke-width="1.0" stroke-linejoin="round" stroke-linecap="butt" d="m480.15747 364.95145l43.02362 0l0 58.771637l-43.02362 0z" fill-rule="evenodd"></path><path fill="#000000" d="m506.04395 399.6479l0 1.609375l-8.984375 0q-0.015625 -0.609375 0.1875 -1.15625q0.34375 -0.921875 1.09375 -1.8125q0.765625 -0.890625 2.1875 -2.0625q2.21875 -1.8125 3.0 -2.875q0.78125 -1.0625 0.78125 -2.015625q0 -0.984375 -0.71875 -1.671875q-0.703125 -0.6875 -1.84375 -0.6875q-1.203125 0 -1.9375 0.734375q-0.71875 0.71875 -0.71875 2.0l-1.71875 -0.171875q0.171875 -1.921875 1.328125 -2.921875q1.15625 -1.015625 3.09375 -1.015625q1.953125 0 3.09375 1.09375q1.140625 1.078125 1.140625 2.6875q0 0.8125 -0.34375 1.609375q-0.328125 0.78125 -1.109375 1.65625q-0.765625 0.859375 -2.5625 2.390625q-1.5 1.265625 -1.9375 1.71875q-0.421875 0.4375 -0.703125 0.890625l6.671875 0z" fill-rule="nonzero"></path><path fill="#cfe2f3" d="m262.71915 431.74933l43.02362 0l0 58.771667l-43.02362 0z" fill-rule="evenodd"></path><path stroke="#000000" stroke-width="1.0" stroke-linejoin="round" stroke-linecap="butt" d="m262.71915 431.74933l43.02362 0l0 58.771667l-43.02362 0z" fill-rule="evenodd"></path><path fill="#000000" d="m286.12125 468.05518l-1.671875 0l0 -10.640625q-0.59375 0.578125 -1.578125 1.15625q-0.984375 0.5625 -1.765625 0.859375l0 -1.625q1.40625 -0.65625 2.453125 -1.59375q1.046875 -0.9375 1.484375 -1.8125l1.078125 0l0 13.65625z" fill-rule="nonzero"></path><path fill="#fce5cd" d="m317.07874 431.74933l43.02362 0l0 58.771667l-43.02362 0z" fill-rule="evenodd"></path><path stroke="#000000" stroke-width="1.0" stroke-linejoin="round" stroke-linecap="butt" d="m317.07874 431.74933l43.02362 0l0 58.771667l-43.02362 0z" fill-rule="evenodd"></path><path fill="#000000" d="m339.5433 468.05518l0 -3.25l-5.90625 0l0 -1.53125l6.21875 -8.8125l1.359375 0l0 8.8125l1.84375 0l0 1.53125l-1.84375 0l0 3.25l-1.671875 0zm0 -4.78125l0 -6.140625l-4.25 6.140625l4.25 0z" fill-rule="nonzero"></path><path fill="#cfe2f3" d="m371.43832 431.74933l43.02362 0l0 58.771667l-43.02362 0z" fill-rule="evenodd"></path><path stroke="#000000" stroke-width="1.0" stroke-linejoin="round" stroke-linecap="butt" d="m371.43832 431.74933l43.02362 0l0 58.771667l-43.02362 0z" fill-rule="evenodd"></path><path fill="#000000" d="m388.55914 464.46143l1.671875 -0.21875q0.28125 1.421875 0.96875 2.046875q0.703125 0.625 1.6875 0.625q1.1875 0 2.0 -0.8125q0.8125 -0.828125 0.8125 -2.03125q0 -1.140625 -0.765625 -1.890625q-0.75 -0.75 -1.90625 -0.75q-0.46875 0 -1.171875 0.1875l0.1875 -1.46875q0.15625 0.015625 0.265625 0.015625q1.0625 0 1.90625 -0.546875q0.859375 -0.5625 0.859375 -1.71875q0 -0.921875 -0.625 -1.515625q-0.609375 -0.609375 -1.59375 -0.609375q-0.96875 0 -1.625 0.609375q-0.640625 0.609375 -0.828125 1.84375l-1.671875 -0.296875q0.296875 -1.6875 1.375 -2.609375q1.09375 -0.921875 2.71875 -0.921875q1.109375 0 2.046875 0.484375q0.9375 0.46875 1.421875 1.296875q0.5 0.828125 0.5 1.75q0 0.890625 -0.46875 1.609375q-0.46875 0.71875 -1.40625 1.15625q1.21875 0.265625 1.875 1.15625q0.671875 0.875 0.671875 2.1875q0 1.78125 -1.296875 3.015625q-1.296875 1.234375 -3.28125 1.234375q-1.796875 0 -2.984375 -1.0625q-1.171875 -1.0625 -1.34375 -2.765625z" fill-rule="nonzero"></path><path fill="#cfe2f3" d="m425.7979 431.74933l43.02362 0l0 58.771667l-43.02362 0z" fill-rule="evenodd"></path><path stroke="#000000" stroke-width="1.0" stroke-linejoin="round" stroke-linecap="butt" d="m425.7979 431.74933l43.02362 0l0 58.771667l-43.02362 0z" fill-rule="evenodd"></path><path fill="#000000" d="m449.19998 468.05518l-1.671875 0l0 -10.640625q-0.59375 0.578125 -1.578125 1.15625q-0.984375 0.5625 -1.765625 0.859375l0 -1.625q1.40625 -0.65625 2.453125 -1.59375q1.046875 -0.9375 1.484375 -1.8125l1.078125 0l0 13.65625z" fill-rule="nonzero"></path><path fill="#cfe2f3" d="m480.15747 431.74933l43.02362 0l0 58.771667l-43.02362 0z" fill-rule="evenodd"></path><path stroke="#000000" stroke-width="1.0" stroke-linejoin="round" stroke-linecap="butt" d="m480.15747 431.74933l43.02362 0l0 58.771667l-43.02362 0z" fill-rule="evenodd"></path><path fill="#000000" d="m497.2627 464.49268l1.765625 -0.15625q0.1875 1.28125 0.890625 1.9375q0.71875 0.640625 1.71875 0.640625q1.203125 0 2.03125 -0.90625q0.84375 -0.90625 0.84375 -2.421875q0 -1.421875 -0.8125 -2.25q-0.796875 -0.828125 -2.09375 -0.828125q-0.796875 0 -1.453125 0.375q-0.640625 0.359375 -1.015625 0.953125l-1.578125 -0.203125l1.328125 -7.0l6.765625 0l0 1.609375l-5.4375 0l-0.734375 3.640625q1.234375 -0.84375 2.578125 -0.84375q1.78125 0 3.0 1.234375q1.234375 1.234375 1.234375 3.171875q0 1.84375 -1.078125 3.1875q-1.3125 1.65625 -3.578125 1.65625q-1.859375 0 -3.03125 -1.03125q-1.171875 -1.046875 -1.34375 -2.765625z" fill-rule="nonzero"></path><path fill="#efefef" d="m368.06824 324.64435l12.4409485 0l0 -33.88974l24.881897 0l0 33.88974l12.4409485 0l-24.881897 24.881897z" fill-rule="evenodd"></path><path stroke="#000000" stroke-width="1.0" stroke-linejoin="round" stroke-linecap="butt" d="m368.06824 324.64435l12.4409485 0l0 -33.88974l24.881897 0l0 33.88974l12.4409485 0l-24.881897 24.881897z" fill-rule="evenodd"></path><path fill="#000000" fill-opacity="0.0" d="m431.16534 297.90683l141.00787 0l0 38.519684l-141.00787 0z" fill-rule="evenodd"></path><path fill="#000000" d="m442.6966 323.6393q8.078125 -1.78125 12.171875 -8.390625l1.328125 1.34375q-3.78125 6.078125 -11.71875 8.609375q-0.234375 0.890625 -0.75 0.078125l-1.03125 -1.640625zm-0.53125 -8.984375q1.859375 0.96875 3.796875 2.375l-1.1875 1.5625q-2.234375 -1.640625 -3.71875 -2.375l1.109375 -1.5625zm2.078125 -4.375q2.015625 1.109375 3.796875 2.375l-1.046875 1.5625q-2.0 -1.421875 -3.703125 -2.375l0.953125 -1.5625zm19.679688 6.53125l6.078125 -1.484375l0.375 -0.21875l1.1875 1.1875q0.296875 0.296875 -0.21875 0.4375q-1.34375 2.15625 -2.828125 4.15625l-1.265625 -0.8125q1.1875 -1.5625 2.234375 -3.265625l-5.125 1.265625l2.53125 7.5l-1.484375 0.515625l-2.453125 -7.71875l-4.3125 1.1875l-0.515625 -1.484375l4.3125 -0.96875l-1.1875 -3.5625l1.546875 -0.296875q0.671875 0 0.234375 0.515625l0.890625 3.046875zm21.367188 -1.046875q-0.515625 4.828125 -2.671875 6.984375q-2.15625 2.15625 -5.640625 3.421875l-0.96875 -1.421875q3.421875 -1.109375 5.34375 -3.046875q2.078125 -2.078125 2.375 -7.046875l1.5625 0.515625q0.671875 0.234375 0 0.59375zm-6.3125 2.671875q-0.890625 -2.0 -1.78125 -3.328125l1.421875 -0.75q1.109375 1.40625 1.921875 3.34375l-1.5625 0.734375zm-3.78125 1.125q-0.890625 -2.078125 -1.859375 -3.5l1.484375 -0.734375q1.046875 1.40625 1.859375 3.40625l-1.484375 0.828125zm13.65625 4.078125q9.28125 -2.15625 9.71875 -9.875l-11.125 0l0 -1.625l11.28125 0l1.03125 -0.234375l0.828125 0.75q-0.296875 9.875 -10.390625 12.625l-1.34375 -1.640625zm24.054688 -0.96875q3.265625 -1.265625 6.0 -5.046875l1.046875 1.40625q-2.828125 3.859375 -7.125 5.578125l-0.59375 0.296875l-1.1875 -0.890625l0.140625 -0.375l0 -11.953125l1.5625 0q0.671875 0.15625 0.15625 0.59375l0 10.390625zm-9.953125 2.0q3.71875 -3.5625 3.71875 -8.828125l0 -3.34375l1.546875 0q0.671875 0.15625 0.15625 0.59375l0 2.671875q0 6.234375 -3.9375 9.875l-1.484375 -0.96875z" fill-rule="nonzero"></path><path fill="#000000" fill-opacity="0.0" d="m431.16534 516.20734l141.00787 0l0 38.519714l-141.00787 0z" fill-rule="evenodd"></path><path fill="#000000" d="m449.8841 538.08044q1.71875 -2.296875 2.3125 -7.71875l1.84375 0.296875q0.671875 0.140625 -0.0625 0.671875q-0.453125 4.75 -2.75 8.015625q-1.703125 2.4375 -6.390625 4.890625l-1.328125 -1.328125q4.234375 -1.9375 6.375 -4.828125zm-6.078125 -2.453125q-1.34375 -2.890625 -2.59375 -4.375l1.625 -0.890625q1.265625 1.5625 2.671875 4.296875l-1.703125 0.96875zm12.5390625 1.40625l0 -1.625l16.546875 0l0 1.625l-16.546875 0zm21.445312 -2.8125q3.640625 1.03125 7.359375 2.8125l-0.890625 1.71875q-3.9375 -2.015625 -6.46875 -2.671875l0 7.71875l-1.703125 0l0 -14.84375l1.484375 0q0.890625 0.0625 0.21875 0.59375l0 4.671875z" fill-rule="nonzero"></path><path fill="#000000" fill-opacity="0.0" d="m431.16534 734.6457l141.00787 0l0 38.519653l-141.00787 0z" fill-rule="evenodd"></path><path fill="#000000" d="m453.30597 759.86255q1.859375 1.25 4.890625 1.78125l-0.59375 1.484375q-5.859375 -1.265625 -7.9375 -5.5l-0.21875 0q-0.59375 0.671875 -2.0 1.640625l0 2.296875l4.375 -0.671875l0 1.125q-2.53125 0.59375 -7.34375 1.328125q-0.078125 0.515625 -0.375 0.21875l-0.375 -1.546875l2.453125 -0.296875l0 -1.796875q-1.9375 1.125 -4.453125 1.71875l-0.515625 -1.421875q3.703125 -0.734375 6.296875 -2.59375l-6.375 0l0 -1.1875l7.796875 0l0 -0.96875l-6.3125 0l0 -0.890625l6.3125 0l0 -0.890625l-2.53125 0l-2.515625 0l0 -4.21875l11.421875 0l0 4.21875l-5.125 0l0 0.890625l6.390625 0l0 0.890625l-6.390625 0l0 0.96875l7.875 0l0 1.1875l-6.984375 0q0.75 1.046875 1.265625 1.484375l2.234375 -1.328125l1.1875 0.734375q0.359375 0.296875 -0.234375 0.296875l-2.21875 1.046875zm-11.734375 -12.40625l7.28125 0l0 -1.328125l1.40625 0q0.59375 0.078125 0.078125 0.4375l0 0.890625l7.265625 0l0 1.1875l-16.03125 0l0 -1.1875zm3.5625 2.90625l0 0.953125l3.796875 0l0 -0.953125l-3.796875 0zm5.046875 0l0 0.953125l3.859375 0l0 -0.953125l-3.859375 0zm-5.046875 1.484375l0 0.953125l3.796875 0l0 -0.953125l-3.796875 0zm5.046875 0l0 0.953125l3.859375 0l0 -0.953125l-3.859375 0zm23.90625 -0.828125l0.140625 -0.359375l1.34375 1.03125q0.4375 0.375 -0.296875 0.515625q-0.8125 2.609375 -2.15625 4.390625q1.640625 1.328125 3.640625 2.0l-0.75 1.625q-2.0 -0.734375 -3.921875 -2.4375q-1.859375 1.703125 -3.796875 2.671875l-0.890625 -1.421875q1.5625 -0.734375 3.5625 -2.296875q-1.546875 -2.21875 -2.078125 -4.296875l-1.109375 0l0 2.140625q0 3.5625 -1.78125 5.34375l-0.96875 -1.484375q1.265625 -1.03125 1.265625 -4.0l0 -7.421875l9.875 0l0 1.625l-8.390625 0l0 2.375l6.3125 0zm3.109375 10.171875l-0.296875 1.421875l-9.046875 0q-2.671875 0 -4.234375 -1.9375q-0.671875 1.109375 -2.375 2.15625l-0.96875 -1.640625q1.640625 -0.671875 2.53125 -1.484375l0 -4.53125l-2.453125 0l0 -1.625l3.9375 0l0 6.078125q1.1875 1.5625 3.484375 1.5625l9.421875 0zm-14.90625 -14.546875q1.78125 1.1875 2.734375 2.75l-1.1875 1.1875q-1.109375 -1.5625 -2.671875 -2.75l1.125 -1.1875zm8.015625 5.796875q0.65625 2.0 1.703125 3.109375q1.109375 -1.5625 1.5625 -3.109375l-3.265625 0zm21.671875 6.453125q-3.203125 3.484375 -6.90625 3.484375q-2.671875 0 -3.9375 -1.265625q-0.96875 -0.953125 -0.96875 -3.703125l0 -9.953125l1.5625 0q0.671875 0.15625 0.15625 0.59375l0 9.359375q0 1.859375 0.65625 2.515625q0.828125 0.828125 2.453125 0.828125q2.890625 0 5.859375 -3.265625l1.125 1.40625z" fill-rule="nonzero"></path></g></svg>

