<?xml version="1.0" standalone="yes"?>

<svg version="1.1" viewBox="0.0 0.0 960.0 720.0" fill="none" stroke="none" stroke-linecap="square" stroke-miterlimit="10" xmlns="http://www.w3.org/2000/svg" xmlns:xlink="http://www.w3.org/1999/xlink"><clipPath id="p.0"><path d="m0 0l960.0 0l0 720.0l-960.0 0l0 -720.0z" clip-rule="nonzero"></path></clipPath><g clip-path="url(#p.0)"><path fill="#000000" fill-opacity="0.0" d="m0 0l960.0 0l0 720.0l-960.0 0z" fill-rule="evenodd"></path><path fill="#cfe2f3" d="m29.31496 76.031494l46.70866 0l0 46.708664l-46.70866 0z" fill-rule="evenodd"></path><path stroke="#000000" stroke-width="1.0" stroke-linejoin="round" stroke-linecap="butt" d="m29.31496 76.031494l46.70866 0l0 46.708664l-46.70866 0z" fill-rule="evenodd"></path><path fill="#cfe2f3" d="m76.02362 76.031494l46.708664 0l0 46.708664l-46.708664 0z" fill-rule="evenodd"></path><path stroke="#000000" stroke-width="1.0" stroke-linejoin="round" stroke-linecap="butt" d="m76.02362 76.031494l46.708664 0l0 46.708664l-46.708664 0z" fill-rule="evenodd"></path><path fill="#cfe2f3" d="m122.732285 76.031494l46.708664 0l0 46.708664l-46.708664 0z" fill-rule="evenodd"></path><path stroke="#000000" stroke-width="1.0" stroke-linejoin="round" stroke-linecap="butt" d="m122.732285 76.031494l46.708664 0l0 46.708664l-46.708664 0z" fill-rule="evenodd"></path><path fill="#cfe2f3" d="m169.44095 76.031494l46.708664 0l0 46.708664l-46.708664 0z" fill-rule="evenodd"></path><path stroke="#000000" stroke-width="1.0" stroke-linejoin="round" stroke-linecap="butt" d="m169.44095 76.031494l46.708664 0l0 46.708664l-46.708664 0z" fill-rule="evenodd"></path><path fill="#cfe2f3" d="m29.31496 29.322834l46.70866 0l0 46.70866l-46.70866 0z" fill-rule="evenodd"></path><path stroke="#000000" stroke-width="1.0" stroke-linejoin="round" stroke-linecap="butt" d="m29.31496 29.322834l46.70866 0l0 46.70866l-46.70866 0z" fill-rule="evenodd"></path><path fill="#cfe2f3" d="m29.31496 122.74016l46.70866 0l0 46.708664l-46.70866 0z" fill-rule="evenodd"></path><path stroke="#000000" stroke-width="1.0" stroke-linejoin="round" stroke-linecap="butt" d="m29.31496 122.74016l46.70866 0l0 46.708664l-46.70866 0z" fill-rule="evenodd"></path><path fill="#cfe2f3" d="m231.26772 76.031494l46.708664 0l0 46.708664l-46.708664 0z" fill-rule="evenodd"></path><path stroke="#000000" stroke-width="1.0" stroke-linejoin="round" stroke-linecap="butt" d="m231.26772 76.031494l46.708664 0l0 46.708664l-46.708664 0z" fill-rule="evenodd"></path><path fill="#cfe2f3" d="m277.97638 76.031494l46.70865 0l0 46.708664l-46.70865 0z" fill-rule="evenodd"></path><path stroke="#000000" stroke-width="1.0" stroke-linejoin="round" stroke-linecap="butt" d="m277.97638 76.031494l46.70865 0l0 46.708664l-46.70865 0z" fill-rule="evenodd"></path><path fill="#cfe2f3" d="m324.68503 76.031494l46.70868 0l0 46.708664l-46.70868 0z" fill-rule="evenodd"></path><path stroke="#000000" stroke-width="1.0" stroke-linejoin="round" stroke-linecap="butt" d="m324.68503 76.031494l46.70868 0l0 46.708664l-46.70868 0z" fill-rule="evenodd"></path><path fill="#cfe2f3" d="m371.3937 76.031494l46.70865 0l0 46.708664l-46.70865 0z" fill-rule="evenodd"></path><path stroke="#000000" stroke-width="1.0" stroke-linejoin="round" stroke-linecap="butt" d="m371.3937 76.031494l46.70865 0l0 46.708664l-46.70865 0z" fill-rule="evenodd"></path><path fill="#cfe2f3" d="m231.26772 29.322834l46.708664 0l0 46.70866l-46.708664 0z" fill-rule="evenodd"></path><path stroke="#000000" stroke-width="1.0" stroke-linejoin="round" stroke-linecap="butt" d="m231.26772 29.322834l46.708664 0l0 46.70866l-46.708664 0z" fill-rule="evenodd"></path><path fill="#cfe2f3" d="m277.97638 122.74016l46.70865 0l0 46.708664l-46.70865 0z" fill-rule="evenodd"></path><path stroke="#000000" stroke-width="1.0" stroke-linejoin="round" stroke-linecap="butt" d="m277.97638 122.74016l46.70865 0l0 46.708664l-46.70865 0z" fill-rule="evenodd"></path><path fill="#cfe2f3" d="m443.2966 76.031494l46.70865 0l0 46.708664l-46.70865 0z" fill-rule="evenodd"></path><path stroke="#000000" stroke-width="1.0" stroke-linejoin="round" stroke-linecap="butt" d="m443.2966 76.031494l46.70865 0l0 46.708664l-46.70865 0z" fill-rule="evenodd"></path><path fill="#cfe2f3" d="m490.00525 76.031494l46.70868 0l0 46.708664l-46.70868 0z" fill-rule="evenodd"></path><path stroke="#000000" stroke-width="1.0" stroke-linejoin="round" stroke-linecap="butt" d="m490.00525 76.031494l46.70868 0l0 46.708664l-46.70868 0z" fill-rule="evenodd"></path><path fill="#cfe2f3" d="m536.7139 76.031494l46.70862 0l0 46.708664l-46.70862 0z" fill-rule="evenodd"></path><path stroke="#000000" stroke-width="1.0" stroke-linejoin="round" stroke-linecap="butt" d="m536.7139 76.031494l46.70862 0l0 46.708664l-46.70862 0z" fill-rule="evenodd"></path><path fill="#cfe2f3" d="m583.42255 76.031494l46.70868 0l0 46.708664l-46.70868 0z" fill-rule="evenodd"></path><path stroke="#000000" stroke-width="1.0" stroke-linejoin="round" stroke-linecap="butt" d="m583.42255 76.031494l46.70868 0l0 46.708664l-46.70868 0z" fill-rule="evenodd"></path><path fill="#cfe2f3" d="m443.2966 29.322834l46.70865 0l0 46.70866l-46.70865 0z" fill-rule="evenodd"></path><path stroke="#000000" stroke-width="1.0" stroke-linejoin="round" stroke-linecap="butt" d="m443.2966 29.322834l46.70865 0l0 46.70866l-46.70865 0z" fill-rule="evenodd"></path><path fill="#cfe2f3" d="m536.7139 122.74016l46.70862 0l0 46.708664l-46.70862 0z" fill-rule="evenodd"></path><path stroke="#000000" stroke-width="1.0" stroke-linejoin="round" stroke-linecap="butt" d="m536.7139 122.74016l46.70862 0l0 46.708664l-46.70862 0z" fill-rule="evenodd"></path><path fill="#cfe2f3" d="m655.32544 76.031494l46.70868 0l0 46.708664l-46.70868 0z" fill-rule="evenodd"></path><path stroke="#000000" stroke-width="1.0" stroke-linejoin="round" stroke-linecap="butt" d="m655.32544 76.031494l46.70868 0l0 46.708664l-46.70868 0z" fill-rule="evenodd"></path><path fill="#cfe2f3" d="m702.0341 76.031494l46.70868 0l0 46.708664l-46.70868 0z" fill-rule="evenodd"></path><path stroke="#000000" stroke-width="1.0" stroke-linejoin="round" stroke-linecap="butt" d="m702.0341 76.031494l46.70868 0l0 46.708664l-46.70868 0z" fill-rule="evenodd"></path><path fill="#cfe2f3" d="m748.7428 76.031494l46.70862 0l0 46.708664l-46.70862 0z" fill-rule="evenodd"></path><path stroke="#000000" stroke-width="1.0" stroke-linejoin="round" stroke-linecap="butt" d="m748.7428 76.031494l46.70862 0l0 46.708664l-46.70862 0z" fill-rule="evenodd"></path><path fill="#cfe2f3" d="m795.4514 76.031494l46.70868 0l0 46.708664l-46.70868 0z" fill-rule="evenodd"></path><path stroke="#000000" stroke-width="1.0" stroke-linejoin="round" stroke-linecap="butt" d="m795.4514 76.031494l46.70868 0l0 46.708664l-46.70868 0z" fill-rule="evenodd"></path><path fill="#cfe2f3" d="m655.32544 29.322834l46.70868 0l0 46.70866l-46.70868 0z" fill-rule="evenodd"></path><path stroke="#000000" stroke-width="1.0" stroke-linejoin="round" stroke-linecap="butt" d="m655.32544 29.322834l46.70868 0l0 46.70866l-46.70868 0z" fill-rule="evenodd"></path><path fill="#cfe2f3" d="m795.4514 122.74016l46.70868 0l0 46.708664l-46.70868 0z" fill-rule="evenodd"></path><path stroke="#000000" stroke-width="1.0" stroke-linejoin="round" stroke-linecap="butt" d="m795.4514 122.74016l46.70868 0l0 46.708664l-46.70868 0z" fill-rule="evenodd"></path><path fill="#cfe2f3" d="m29.31496 245.92389l46.70866 0l0 46.70865l-46.70866 0z" fill-rule="evenodd"></path><path stroke="#000000" stroke-width="1.0" stroke-linejoin="round" stroke-linecap="butt" d="m29.31496 245.92389l46.70866 0l0 46.70865l-46.70866 0z" fill-rule="evenodd"></path><path fill="#cfe2f3" d="m76.02362 245.92389l46.708664 0l0 46.70865l-46.708664 0z" fill-rule="evenodd"></path><path stroke="#000000" stroke-width="1.0" stroke-linejoin="round" stroke-linecap="butt" d="m76.02362 245.92389l46.708664 0l0 46.70865l-46.708664 0z" fill-rule="evenodd"></path><path fill="#cfe2f3" d="m122.732285 245.92389l46.708664 0l0 46.70865l-46.708664 0z" fill-rule="evenodd"></path><path stroke="#000000" stroke-width="1.0" stroke-linejoin="round" stroke-linecap="butt" d="m122.732285 245.92389l46.708664 0l0 46.70865l-46.708664 0z" fill-rule="evenodd"></path><path fill="#cfe2f3" d="m169.44095 245.92389l46.708664 0l0 46.70865l-46.708664 0z" fill-rule="evenodd"></path><path stroke="#000000" stroke-width="1.0" stroke-linejoin="round" stroke-linecap="butt" d="m169.44095 245.92389l46.708664 0l0 46.70865l-46.708664 0z" fill-rule="evenodd"></path><path fill="#cfe2f3" d="m76.02362 199.21523l46.708664 0l0 46.708664l-46.708664 0z" fill-rule="evenodd"></path><path stroke="#000000" stroke-width="1.0" stroke-linejoin="round" stroke-linecap="butt" d="m76.02362 199.21523l46.708664 0l0 46.708664l-46.708664 0z" fill-rule="evenodd"></path><path fill="#cfe2f3" d="m76.02362 292.63254l46.708664 0l0 46.70868l-46.708664 0z" fill-rule="evenodd"></path><path stroke="#000000" stroke-width="1.0" stroke-linejoin="round" stroke-linecap="butt" d="m76.02362 292.63254l46.708664 0l0 46.70868l-46.708664 0z" fill-rule="evenodd"></path><path fill="#cfe2f3" d="m231.26772 245.92389l46.708664 0l0 46.70865l-46.708664 0z" fill-rule="evenodd"></path><path stroke="#000000" stroke-width="1.0" stroke-linejoin="round" stroke-linecap="butt" d="m231.26772 245.92389l46.708664 0l0 46.70865l-46.708664 0z" fill-rule="evenodd"></path><path fill="#cfe2f3" d="m277.97638 245.92389l46.70865 0l0 46.70865l-46.70865 0z" fill-rule="evenodd"></path><path stroke="#000000" stroke-width="1.0" stroke-linejoin="round" stroke-linecap="butt" d="m277.97638 245.92389l46.70865 0l0 46.70865l-46.70865 0z" fill-rule="evenodd"></path><path fill="#cfe2f3" d="m324.68503 245.92389l46.70868 0l0 46.70865l-46.70868 0z" fill-rule="evenodd"></path><path stroke="#000000" stroke-width="1.0" stroke-linejoin="round" stroke-linecap="butt" d="m324.68503 245.92389l46.70868 0l0 46.70865l-46.70868 0z" fill-rule="evenodd"></path><path fill="#cfe2f3" d="m371.3937 245.92389l46.70865 0l0 46.70865l-46.70865 0z" fill-rule="evenodd"></path><path stroke="#000000" stroke-width="1.0" stroke-linejoin="round" stroke-linecap="butt" d="m371.3937 245.92389l46.70865 0l0 46.70865l-46.70865 0z" fill-rule="evenodd"></path><path fill="#cfe2f3" d="m277.97507 199.21523l46.70865 0l0 46.708664l-46.70865 0z" fill-rule="evenodd"></path><path stroke="#000000" stroke-width="1.0" stroke-linejoin="round" stroke-linecap="butt" d="m277.97507 199.21523l46.70865 0l0 46.708664l-46.70865 0z" fill-rule="evenodd"></path><path fill="#cfe2f3" d="m324.68503 292.63254l46.70868 0l0 46.70868l-46.70868 0z" fill-rule="evenodd"></path><path stroke="#000000" stroke-width="1.0" stroke-linejoin="round" stroke-linecap="butt" d="m324.68503 292.63254l46.70868 0l0 46.70868l-46.70868 0z" fill-rule="evenodd"></path><path fill="#cfe2f3" d="m490.00525 199.21523l46.70868 0l0 46.708664l-46.70868 0z" fill-rule="evenodd"></path><path stroke="#000000" stroke-width="1.0" stroke-linejoin="round" stroke-linecap="butt" d="m490.00525 199.21523l46.70868 0l0 46.708664l-46.70868 0z" fill-rule="evenodd"></path><path fill="#cfe2f3" d="m490.00525 245.92389l46.70868 0l0 46.70865l-46.70868 0z" fill-rule="evenodd"></path><path stroke="#000000" stroke-width="1.0" stroke-linejoin="round" stroke-linecap="butt" d="m490.00525 245.92389l46.70868 0l0 46.70865l-46.70868 0z" fill-rule="evenodd"></path><path fill="#cfe2f3" d="m536.7139 245.92389l46.70862 0l0 46.70865l-46.70862 0z" fill-rule="evenodd"></path><path stroke="#000000" stroke-width="1.0" stroke-linejoin="round" stroke-linecap="butt" d="m536.7139 245.92389l46.70862 0l0 46.70865l-46.70862 0z" fill-rule="evenodd"></path><path fill="#cfe2f3" d="m583.42255 245.92389l46.70868 0l0 46.70865l-46.70868 0z" fill-rule="evenodd"></path><path stroke="#000000" stroke-width="1.0" stroke-linejoin="round" stroke-linecap="butt" d="m583.42255 245.92389l46.70868 0l0 46.70865l-46.70868 0z" fill-rule="evenodd"></path><path fill="#cfe2f3" d="m443.2966 199.21523l46.70865 0l0 46.708664l-46.70865 0z" fill-rule="evenodd"></path><path stroke="#000000" stroke-width="1.0" stroke-linejoin="round" stroke-linecap="butt" d="m443.2966 199.21523l46.70865 0l0 46.708664l-46.70865 0z" fill-rule="evenodd"></path><path fill="#cfe2f3" d="m536.7139 292.63254l46.70862 0l0 46.70868l-46.70862 0z" fill-rule="evenodd"></path><path stroke="#000000" stroke-width="1.0" stroke-linejoin="round" stroke-linecap="butt" d="m536.7139 292.63254l46.70862 0l0 46.70868l-46.70862 0z" fill-rule="evenodd"></path><path fill="#cfe2f3" d="m702.0341 199.21523l46.70868 0l0 46.708664l-46.70868 0z" fill-rule="evenodd"></path><path stroke="#000000" stroke-width="1.0" stroke-linejoin="round" stroke-linecap="butt" d="m702.0341 199.21523l46.70868 0l0 46.708664l-46.70868 0z" fill-rule="evenodd"></path><path fill="#cfe2f3" d="m702.0341 245.92389l46.70868 0l0 46.70865l-46.70868 0z" fill-rule="evenodd"></path><path stroke="#000000" stroke-width="1.0" stroke-linejoin="round" stroke-linecap="butt" d="m702.0341 245.92389l46.70868 0l0 46.70865l-46.70868 0z" fill-rule="evenodd"></path><path fill="#cfe2f3" d="m748.7428 245.92389l46.70862 0l0 46.70865l-46.70862 0z" fill-rule="evenodd"></path><path stroke="#000000" stroke-width="1.0" stroke-linejoin="round" stroke-linecap="butt" d="m748.7428 245.92389l46.70862 0l0 46.70865l-46.70862 0z" fill-rule="evenodd"></path><path fill="#cfe2f3" d="m795.4514 245.92389l46.70868 0l0 46.70865l-46.70868 0z" fill-rule="evenodd"></path><path stroke="#000000" stroke-width="1.0" stroke-linejoin="round" stroke-linecap="butt" d="m795.4514 245.92389l46.70868 0l0 46.70865l-46.70868 0z" fill-rule="evenodd"></path><path fill="#cfe2f3" d="m655.32544 199.21523l46.70868 0l0 46.708664l-46.70868 0z" fill-rule="evenodd"></path><path stroke="#000000" stroke-width="1.0" stroke-linejoin="round" stroke-linecap="butt" d="m655.32544 199.21523l46.70868 0l0 46.708664l-46.70868 0z" fill-rule="evenodd"></path><path fill="#cfe2f3" d="m702.0341 292.63254l46.70868 0l0 46.70868l-46.70868 0z" fill-rule="evenodd"></path><path stroke="#000000" stroke-width="1.0" stroke-linejoin="round" stroke-linecap="butt" d="m702.0341 292.63254l46.70868 0l0 46.70868l-46.70868 0z" fill-rule="evenodd"></path><path fill="#cfe2f3" d="m76.02362 369.1076l46.708664 0l0 46.70868l-46.708664 0z" fill-rule="evenodd"></path><path stroke="#000000" stroke-width="1.0" stroke-linejoin="round" stroke-linecap="butt" d="m76.02362 369.1076l46.708664 0l0 46.70868l-46.708664 0z" fill-rule="evenodd"></path><path fill="#cfe2f3" d="m76.02362 415.81628l46.708664 0l0 46.70865l-46.708664 0z" fill-rule="evenodd"></path><path stroke="#000000" stroke-width="1.0" stroke-linejoin="round" stroke-linecap="butt" d="m76.02362 415.81628l46.708664 0l0 46.70865l-46.708664 0z" fill-rule="evenodd"></path><path fill="#cfe2f3" d="m122.732285 415.81628l46.708664 0l0 46.70865l-46.708664 0z" fill-rule="evenodd"></path><path stroke="#000000" stroke-width="1.0" stroke-linejoin="round" stroke-linecap="butt" d="m122.732285 415.81628l46.708664 0l0 46.70865l-46.708664 0z" fill-rule="evenodd"></path><path fill="#cfe2f3" d="m169.44095 462.52493l46.708664 0l0 46.70865l-46.708664 0z" fill-rule="evenodd"></path><path stroke="#000000" stroke-width="1.0" stroke-linejoin="round" stroke-linecap="butt" d="m169.44095 462.52493l46.708664 0l0 46.70865l-46.708664 0z" fill-rule="evenodd"></path><path fill="#cfe2f3" d="m29.31496 369.1076l46.70866 0l0 46.70868l-46.70866 0z" fill-rule="evenodd"></path><path stroke="#000000" stroke-width="1.0" stroke-linejoin="round" stroke-linecap="butt" d="m29.31496 369.1076l46.70866 0l0 46.70868l-46.70866 0z" fill-rule="evenodd"></path><path fill="#cfe2f3" d="m122.732285 462.52493l46.708664 0l0 46.70865l-46.708664 0z" fill-rule="evenodd"></path><path stroke="#000000" stroke-width="1.0" stroke-linejoin="round" stroke-linecap="butt" d="m122.732285 462.52493l46.708664 0l0 46.70865l-46.708664 0z" fill-rule="evenodd"></path><path fill="#cfe2f3" d="m277.97638 369.1076l46.70865 0l0 46.70868l-46.70865 0z" fill-rule="evenodd"></path><path stroke="#000000" stroke-width="1.0" stroke-linejoin="round" stroke-linecap="butt" d="m277.97638 369.1076l46.70865 0l0 46.70868l-46.70865 0z" fill-rule="evenodd"></path><path fill="#cfe2f3" d="m277.97638 415.81628l46.70865 0l0 46.70865l-46.70865 0z" fill-rule="evenodd"></path><path stroke="#000000" stroke-width="1.0" stroke-linejoin="round" stroke-linecap="butt" d="m277.97638 415.81628l46.70865 0l0 46.70865l-46.70865 0z" fill-rule="evenodd"></path><path fill="#cfe2f3" d="m324.68503 415.81628l46.70868 0l0 46.70865l-46.70868 0z" fill-rule="evenodd"></path><path stroke="#000000" stroke-width="1.0" stroke-linejoin="round" stroke-linecap="butt" d="m324.68503 415.81628l46.70868 0l0 46.70865l-46.70868 0z" fill-rule="evenodd"></path><path fill="#cfe2f3" d="m371.3937 415.81628l46.70865 0l0 46.70865l-46.70865 0z" fill-rule="evenodd"></path><path stroke="#000000" stroke-width="1.0" stroke-linejoin="round" stroke-linecap="butt" d="m371.3937 415.81628l46.70865 0l0 46.70865l-46.70865 0z" fill-rule="evenodd"></path><path fill="#cfe2f3" d="m231.26772 369.1076l46.708664 0l0 46.70868l-46.708664 0z" fill-rule="evenodd"></path><path stroke="#000000" stroke-width="1.0" stroke-linejoin="round" stroke-linecap="butt" d="m231.26772 369.1076l46.708664 0l0 46.70868l-46.708664 0z" fill-rule="evenodd"></path><path fill="#cfe2f3" d="m371.3937 462.52493l46.70865 0l0 46.70865l-46.70865 0z" fill-rule="evenodd"></path><path stroke="#000000" stroke-width="1.0" stroke-linejoin="round" stroke-linecap="butt" d="m371.3937 462.52493l46.70865 0l0 46.70865l-46.70865 0z" fill-rule="evenodd"></path><path fill="#cfe2f3" d="m494.5853 369.1076l46.70865 0l0 46.70868l-46.70865 0z" fill-rule="evenodd"></path><path stroke="#000000" stroke-width="1.0" stroke-linejoin="round" stroke-linecap="butt" d="m494.5853 369.1076l46.70865 0l0 46.70868l-46.70865 0z" fill-rule="evenodd"></path><path fill="#cfe2f3" d="m634.7113 415.81628l46.70862 0l0 46.70865l-46.70862 0z" fill-rule="evenodd"></path><path stroke="#000000" stroke-width="1.0" stroke-linejoin="round" stroke-linecap="butt" d="m634.7113 415.81628l46.70862 0l0 46.70865l-46.70862 0z" fill-rule="evenodd"></path><path fill="#cfe2f3" d="m541.29395 415.81628l46.70868 0l0 46.70865l-46.70868 0z" fill-rule="evenodd"></path><path stroke="#000000" stroke-width="1.0" stroke-linejoin="round" stroke-linecap="butt" d="m541.29395 415.81628l46.70868 0l0 46.70865l-46.70868 0z" fill-rule="evenodd"></path><path fill="#cfe2f3" d="m588.0026 415.81628l46.70868 0l0 46.70865l-46.70868 0z" fill-rule="evenodd"></path><path stroke="#000000" stroke-width="1.0" stroke-linejoin="round" stroke-linecap="butt" d="m588.0026 415.81628l46.70868 0l0 46.70865l-46.70868 0z" fill-rule="evenodd"></path><path fill="#cfe2f3" d="m447.87665 369.1076l46.70865 0l0 46.70868l-46.70865 0z" fill-rule="evenodd"></path><path stroke="#000000" stroke-width="1.0" stroke-linejoin="round" stroke-linecap="butt" d="m447.87665 369.1076l46.70865 0l0 46.70868l-46.70865 0z" fill-rule="evenodd"></path><path fill="#cfe2f3" d="m541.29395 369.1076l46.70868 0l0 46.70868l-46.70868 0z" fill-rule="evenodd"></path><path stroke="#000000" stroke-width="1.0" stroke-linejoin="round" stroke-linecap="butt" d="m541.29395 369.1076l46.70868 0l0 46.70868l-46.70868 0z" fill-rule="evenodd"></path></g></svg>

